<svg viewBox="0 0 24 24" fill="none" xmlns="http://www.w3.org/2000/svg">
<path d="M13.527 20.064l-2.223-.87C9.59 18.633 8.485 17.93 7.7 16.9c-.785-1.03-1.177-2.24-1.177-3.63 0-1.48.44-2.76 1.32-3.84.88-1.08 2.01-1.74 3.39-1.98.15-.03.33-.04.54-.04.51 0 .96.08 1.35.25.39.17.73.41 1.02.73.29.32.51.7.66 1.14.15.44.23.91.23 1.41 0 .69-.13 1.34-.39 1.93-.26.59-.63 1.09-1.11 1.51s-1.04.75-1.68.99c-.64.24-1.33.36-2.07.36-.2 0-.39-.01-.57-.03-.18-.02-.35-.05-.51-.1l-.93 2.7c.47.18.97.32 1.49.42.52.1 1.05.15 1.59.15.89 0 1.73-.13 2.52-.39.79-.26 1.49-.63 2.1-1.11.61-.48 1.1-1.06 1.47-1.74.37-.68.55-1.44.55-2.28 0-.69-.11-1.35-.33-1.98-.22-.63-.54-1.19-.96-1.68-.42-.49-.93-.87-1.53-1.14-.6-.27-1.27-.4-2.01-.4-.74 0-1.44.13-2.1.4-.66.27-1.25.64-1.77 1.11-.52.47-.93 1.02-1.23 1.65-.3.63-.45 1.31-.45 2.04 0 .73.15 1.41.45 2.04.3.63.71 1.18 1.23 1.65.52.47 1.11.84 1.77 1.11.66.27 1.36.4 2.1.4l.54-.02c.18-.01.35-.03.51-.06zm9.283-12.064h1.71v14h-1.71v-14zm-11.28 0h1.71v8.5c0 .83.15 1.47.45 1.93.3.46.75.69 1.35.69.6 0 1.05-.23 1.35-.69.3-.46.45-1.1.45-1.93v-8.5h1.71v8.5c0 1.23-.32 2.17-.96 2.82-.64.65-1.57.97-2.79.97-1.22 0-2.15-.32-2.79-.97-.64-.65-.96-1.59-.96-2.82v-8.5zm-8.01 0h5.22v1.5h-3.51v4h3.21v1.5h-3.21v5.5h3.51v1.5h-5.22v-14z" fill="#FF9900"/>
</svg>
