<svg viewBox="0 0 24 24" fill="none" xmlns="http://www.w3.org/2000/svg">
<path d="M13.983 11.078h2.119a.186.186 0 0 0 .186-.185V9.006a.186.186 0 0 0-.186-.186h-2.119a.185.185 0 0 0-.185.185v1.888c0 .102.083.185.185.185M9.819 8.82h2.118a.186.186 0 0 0 .186-.186V6.747a.186.186 0 0 0-.186-.186H9.82a.185.185 0 0 0-.186.185v1.888c0 .102.084.185.186.185M5.655 11.078h2.118a.186.186 0 0 0 .186-.185V9.006a.186.186 0 0 0-.186-.186H5.655a.185.185 0 0 0-.185.185v1.888c0 .102.083.185.185.185M13.983 15.24h2.119a.186.186 0 0 0 .186-.185v-1.888a.186.186 0 0 0-.186-.185h-2.119a.185.185 0 0 0-.185.185v1.888c0 .103.083.185.185.185M9.819 15.24h2.118a.186.186 0 0 0 .186-.185v-1.888a.186.186 0 0 0-.186-.185H9.82a.185.185 0 0 0-.186.185v1.888c0 .103.084.185.186.185M5.655 15.24h2.118a.186.186 0 0 0 .186-.185v-1.888a.186.186 0 0 0-.186-.185H5.655a.185.185 0 0 0-.185.185v1.888c0 .103.083.185.185.185" fill="#0db7ed"/>
<path d="M23.763 9.89c-.065-.051-.672-.51-1.954-.51-.338 0-.676.03-1.01.087-.248-1.7-1.653-2.53-1.716-2.566l-.344-.199-.226.327c-.284.438-.49.731-.612.980-.18.302-.222.58-.222.58-.046.69.117 1.368.611 2.02-.2.064-.621.2-1.619.2h-1.751c-.094 0-.189.023-.259.068C14.358 6.797 8.257 6.52 8.257 6.52c-.21-.015-.413.162-.413.402 0 .29-.046.677-.046.677-.09.812-.274 1.632-.69 2.367.115-.007.236-.007.361-.007.15 0 .293.003.427.007C7.474 11.286 6.974 13.04 6.974 13.04c-.338 1.024-.66 2.255-.66 2.255 0 .014.007.027.014.04.65 4.73 3.435 6.998 3.435 6.998.299.191.756.3 1.337.3.132 0 .2-.011.2-.011.472 0 .953-.018 1.432-.018.47 0 .942.018 1.425.018 0 0 .068.011.2.011.581 0 1.038-.109 1.337-.3 0 0 2.786-2.268 3.435-6.998.007-.013.014-.026.014-.04 0 0-.322-1.231-.66-2.255 0 0-.5-1.754-.922-3.074.134-.004.277-.007.427-.007.125 0 .246 0 .361.007-.416-.735-.6-1.555-.69-2.367 0 0-.046-.387-.046-.677 0-.24.203-.417.413-.402 0 0 6.101.277 8.204-3.803.13-.249.328-.542.612-.98l.226-.327-.344-.199c-.063-.036-1.468-.866-1.716-2.566-.334-.057-.672-.087-1.01-.087-1.282 0-1.889.459-1.954.51C24.09 8.1 23.976 8.88 23.763 9.89z" fill="#0db7ed"/>
</svg>
