<svg viewBox="0 0 24 24" fill="none" xmlns="http://www.w3.org/2000/svg">
<path d="M10.204 14.35l.007.01-.999 2.413a5.171 5.171 0 0 1-2.075-2.597l2.578-.437.004-.004c.05.02.1.04.154.056.159.061.326.109.49.146.139.029.283.049.428.058.117.007.235.006.352-.002.056-.004.113-.01.168-.017.092-.012.084-.006.084-.006l-.19-.02zM22.868 9.627c-.001.019-.008.035-.011.053-.006.033-.011.065-.02.096a.263.263 0 0 1-.024.062c-.007.014-.012.028-.021.04l-3.015 4.046a.4.4 0 0 1-.121.099.323.323 0 0 1-.154.035H9.714a.314.314 0 0 1-.154-.035.4.4 0 0 1-.121-.099L6.424 9.878c-.009-.012-.014-.026-.021-.04a.263.263 0 0 1-.024-.062c-.009-.031-.014-.063-.02-.096-.003-.018-.01-.034-.011-.053a.316.316 0 0 1 .07-.215L9.433 5.37a.4.4 0 0 1 .121-.099.323.323 0 0 1 .154-.035h9.789c.055 0 .108.012.154.035a.4.4 0 0 1 .121.099l3.015 4.042a.316.316 0 0 1 .07.215z" fill="#326CE5"/>
<path d="M16.033 18.21a5.791 5.791 0 0 1-3.234.956c-1.268 0-2.41-.4-3.358-1.08L10.999 15.673h8.709l-3.675 2.537z" fill="#326CE5"/>
</svg>
