<svg viewBox="0 0 24 24" fill="none" xmlns="http://www.w3.org/2000/svg">
<path d="M11.572 0c-.176 0-.31.001-.358.007a19.76 19.76 0 0 1-.364.033C7.443.346 4.25 2.185 2.228 5.012a11.875 11.875 0 0 0-2.119 5.243c-.096.659-.108.854-.108 1.747s.012 1.089.108 1.748c.652 4.506 3.86 8.292 8.209 9.695.779.25 1.6.422 2.534.525.363.04 1.935.04 2.299 0 1.611-.178 2.977-.577 4.323-1.264.207-.106.247-.134.219-.158-.02-.013-.9-1.193-1.955-2.62l-1.919-2.592-2.404-3.558a338.739 338.739 0 0 0-2.422-3.556c-.009-.002-.018 1.579-.023 3.51-.007 3.38-.01 3.515-.052 3.595a.426.426 0 0 1-.206.214c-.075.037-.14.044-.495.044H7.81l-.108-.068a.438.438 0 0 1-.157-.171l-.05-.106.006-4.703.007-4.705.072-.092a.645.645 0 0 1 .174-.143c.096-.047.134-.051.54-.051.478 0 .558.018.682.154.035.038 1.337 1.999 2.895 4.361a10760.433 10760.433 0 0 0 4.735 7.17l1.9 2.879.096-.063a12.317 12.317 0 0 0 2.466-2.163 11.944 11.944 0 0 0 2.824-6.134c.096-.66.108-.854.108-1.748 0-.893-.012-1.088-.108-1.747C19.777 4.249 16.569.463 12.22.07a7.33 7.33 0 0 0-.648-.07z" fill="#000"/>
<path d="M16.896 10.414c-.082-.047-.197-.054-.679-.054H15.67l.007 2.4c0 1.313-.004 2.4-.009 2.4-.006 0-.107-.154-.225-.342l-2.103-3.146-.544-.812c-.024-.037-.43.004-.45.045-.007.014-.007 1.076-.007 2.357v2.33l.553.001c.304 0 .564-.007.577-.016.024-.017.025-4.79.002-4.808-.01-.008-.552.818-1.206 1.837l-1.19 1.853c-.024.037.43.004.45-.045.007-.014.007-1.076.007-2.357v-2.33l-.553-.001c-.613 0-.654-.02-.654-.32 0-.147.02-.167.154-.167h4.142c.139 0 .17.02.17.154 0 .147-.02.167-.154.167z" fill="#000"/>
</svg>
