<svg viewBox="0 0 24 24" fill="none" xmlns="http://www.w3.org/2000/svg">
<path d="M11.998 24c-1.321 0-2.557-.516-3.48-1.453L1.452 15.48C.516 14.557 0 13.321 0 11.998s.516-2.557 1.453-3.48L8.52 1.452C9.443.516 10.677 0 11.998 0s2.557.516 3.48 1.453l7.066 7.066c.937.923 1.453 2.159 1.453 3.48s-.516 2.557-1.453 3.48l-7.066 7.066c-.923.937-2.159 1.453-3.48 1.453zm0-22.5c-.87 0-1.689.34-2.304.956L2.628 9.521c-.614.615-.956 1.434-.956 2.304s.342 1.689.956 2.304l7.066 7.066c.615.614 1.434.956 2.304.956s1.689-.342 2.304-.956l7.066-7.066c.614-.615.956-1.434.956-2.304s-.342-1.689-.956-2.304L14.302 2.455c-.615-.614-1.434-.956-2.304-.956z" fill="#8CC84B"/>
<path d="M15.9 9.96a.749.749 0 0 1-.66-1.1l1.95-3.9c.15-.3.45-.48.78-.48h2.28c.33 0 .63.18.78.48l1.95 3.9a.749.749 0 0 1-.66 1.1H15.9z" fill="#8CC84B"/>
</svg>
