<svg viewBox="0 0 24 24" fill="none" xmlns="http://www.w3.org/2000/svg">
<path d="M23.979 12c0-1.384-.166-2.782-.494-4.153l-4.053 2.34c.213.58.32 1.206.32 1.813 0 .607-.107 1.233-.32 1.813l4.053 2.34c.328-1.371.494-2.769.494-4.153zM12 23.979c1.384 0 2.782-.166 4.153-.494l-2.34-4.053c-.58.213-1.206.32-1.813.32-.607 0-1.233-.107-1.813-.32l-2.34 4.053c1.371.328 2.769.494 4.153.494zM.021 12c0 1.384.166 2.782.494 4.153l4.053-2.34C4.355 13.233 4.248 12.607 4.248 12c0-.607.107-1.233.32-1.813l-4.053-2.34C.187 9.218.021 10.616.021 12zM12 .021c-1.384 0-2.782.166-4.153.494l2.34 4.053c.58-.213 1.206-.32 1.813-.32.607 0 1.233.107 1.813.32l2.34-4.053C14.782.187 13.384.021 12 .021z" fill="#336791"/>
<path d="M17.071 6.929c-.979-.979-2.299-1.518-3.718-1.518s-2.739.539-3.718 1.518-1.518 2.299-1.518 3.718.539 2.739 1.518 3.718 2.299 1.518 3.718 1.518 2.739-.539 3.718-1.518 1.518-2.299 1.518-3.718-.539-2.739-1.518-3.718zm-1.768 5.486c-.701.701-1.639 1.087-2.636 1.087s-1.935-.386-2.636-1.087-1.087-1.639-1.087-2.636.386-1.935 1.087-2.636 1.639-1.087 2.636-1.087 1.935.386 2.636 1.087 1.087 1.639 1.087 2.636-.386 1.935-1.087 2.636z" fill="#336791"/>
</svg>
